<svg viewBox="0 0 82.08 100" xmlns="http://www.w3.org/2000/svg"><path d="m74.12 74.25a10.44 10.44 0 0 0 -8.53.49l-35.1 18.16a16 16 0 0 0 2.13-3.9 16.28 16.28 0 1 0 -7.77 8.69l36.47-18.86a9.43 9.43 0 0 0 -.72 1.5 10.48 10.48 0 1 0 13.52-6.08zm-61.88 22.64a14.6 14.6 0 1 1 18.83-8.48 14.63 14.63 0 0 1 -18.83 8.48zm66.4-9.72a8.81 8.81 0 1 1 -5.11-11.37 8.81 8.81 0 0 1 5.11 11.37z"/><path d="m21.34 72.89a11.06 11.06 0 1 0 6.42 14.27 11.08 11.08 0 0 0 -6.42-14.27zm4.86 13.68a9.4 9.4 0 1 1 -5.45-12.12 9.41 9.41 0 0 1 5.45 12.12z"/><path d="m19.49 77.76a5.86 5.86 0 1 0 3.4 7.55 5.85 5.85 0 0 0 -3.4-7.55zm1.84 7a4.19 4.19 0 1 1 -2.43-5.41 4.19 4.19 0 0 1 2.43 5.37z"/><path d="m31.8 45.46.13-.3a1 1 0 0 0 -.13.3z"/><path d="m57.64 57.54-.06-.14a1.74 1.74 0 0 0 -.18-.33l.18.43.06.14.09.2zm-2.85-1.41h1.36a2.36 2.36 0 0 0 -1.36 0z"/><path d="m42.36 1.38-28 64.09a18.71 18.71 0 0 1 3-.25 18.1 18.1 0 0 1 5.46.85l.65.23 3.7-8.75a2.28 2.28 0 0 1 1-1.13 2.33 2.33 0 0 1 1.11-.29h25.51a2.36 2.36 0 0 1 1.36 0 2.34 2.34 0 0 1 1.25.94 1.74 1.74 0 0 1 .18.33l.06.14.09.31 6.68 15.78a12 12 0 0 1 9-1.2zm10.64 45.48a2.3 2.3 0 0 1 -2.21 1.67h-16.79a2.48 2.48 0 0 1 -.65-.09 2.31 2.31 0 0 1 -1.57-2.86.56.56 0 0 1 0-.12 1 1 0 0 1 .13-.3l10.45-24.16 10.47 24.25a.61.61 0 0 1 .05.12 2.3 2.3 0 0 1 .12 1.49z"/><path d="m70.4 80.35a3.7 3.7 0 1 1 -3.69 3.65 3.7 3.7 0 0 1 3.69-3.69m0-1.63a5.33 5.33 0 1 0 5.33 5.32 5.32 5.32 0 0 0 -5.33-5.32z"/></svg>